<svg xmlns="http://www.w3.org/2000/svg" viewBox="0 0 100 100" width="100" height="100">
  <defs>
    <linearGradient id="g" x1="0" y1="0" x2="1" y2="1">
      <stop offset="0%" stop-color="#f6e6a8"/>
      <stop offset="45%" stop-color="#d4af37"/>
      <stop offset="100%" stop-color="#a9812e"/>
    </linearGradient>
    <linearGradient id="d" x1="0" y1="0" x2="1" y2="1">
      <stop offset="0%" stop-color="#1b2e5c"/>
      <stop offset="100%" stop-color="#081128"/>
    </linearGradient>
  </defs>
  <circle cx="50" cy="50" r="48" fill="url(#d)"/>
  <circle cx="50" cy="50" r="46" fill="none" stroke="url(#g)" stroke-width="2.5"/>
  <circle cx="50" cy="50" r="40" fill="none" stroke="url(#g)" stroke-width="1" opacity="0.5"/>
  <path d="M27 70V30l22 30V30" fill="none" stroke="url(#g)" stroke-width="7.5" stroke-linecap="round" stroke-linejoin="round"/>
  <path d="M75 41c-2-3.9-6.1-6-10.6-5.4-4.6.7-7.3 3.7-7.1 7.4.2 3.9 3.4 5.5 8 6.6 4.9 1.2 8.7 2.8 8.9 7.4.2 4.4-3.4 8.1-8.9 8.5-5.1.4-9.2-1.6-11-5.5" fill="none" stroke="url(#g)" stroke-width="7" stroke-linecap="round"/>
</svg>
